<?xml version="1.0" encoding="utf-8"?><svg viewBox="0 0 227 64" fill="none" xmlns="http://www.w3.org/2000/svg">
<path d="M83.0028 15.2957C84.0169 15.2957 84.7944 15.076 85.3352 14.6197C85.8761 14.1633 86.1465 13.5549 86.1465 12.7943V12.7098C86.1465 11.8648 85.8592 11.2225 85.3014 10.8169C84.7437 10.4112 83.9662 10.1915 82.969 10.1915H79.1155V15.2788H83.0028V15.2957ZM73.2507 5.12109H83.2733C84.9127 5.12109 86.2986 5.32391 87.4141 5.72954C88.5465 6.13518 89.4592 6.69292 90.169 7.41969C91.4197 8.63659 92.0451 10.276 92.0451 12.3549V12.4225C92.0451 14.0619 91.6564 15.4141 90.862 16.4788C90.0676 17.5436 89.0197 18.3718 87.6845 18.9295L92.7381 26.3155H85.9606L81.6845 19.8929H81.6338H79.1155V26.3155H73.2338V5.12109H73.2507Z" fill="white"/>
<path d="M95.5944 5.12109H112.614V10.107H101.375V13.3183H111.549V17.9493H101.375V21.3126H112.766V26.3155H95.5944V5.12109Z" fill="white"/>
<path d="M116.366 5.12109H122.586L127.639 13.3183L132.693 5.12109H138.896V26.3155H133.065V14.1464L127.656 22.4281H127.538L122.163 14.1972V26.3155H116.366V5.12109Z" fill="white"/>
<path d="M143.239 5.12109H160.259V10.107H149.02V13.3183H159.194V17.9493H149.02V21.3126H160.411V26.3155H143.239V5.12109Z" fill="white"/>
<path d="M169.183 10.2591H162.828V5.12109H181.42V10.2591H175.065V26.3155H169.183V10.2591Z" fill="white"/>
<path fill-rule="evenodd" clip-rule="evenodd" d="M35.5268 7.96056C31.7916 5.18873 27.431 3.83662 23.1042 3.81972H11.4761V0L0 8.18028L11.4761 16.4789V12.6592H21.2113H24.8789C26.7887 12.9465 28.6648 13.707 30.338 14.9408C35.7634 18.9803 36.8789 26.6366 32.8563 32.062C32.3662 32.7211 31.8254 33.3127 31.2338 33.8535L37.8254 39.6169C38.5521 38.8901 39.2282 38.1127 39.8535 37.2676C46.7493 27.9887 44.8225 14.8563 35.5268 7.96056Z" fill="white"/>
<path fill-rule="evenodd" clip-rule="evenodd" d="M3.73523 55.6395V40.2423C3.87044 28.6648 13.369 19.4029 24.9296 19.5381C25.4366 19.5381 25.9268 19.5719 26.4169 19.6057V28.2761C26.062 28.2592 25.5549 28.2592 24.8113 28.2423C21.0254 28.1916 12.3211 33.5663 12.4226 40.3268V55.6226H3.73523V55.6395Z" fill="#B78D00"/>
<path fill-rule="evenodd" clip-rule="evenodd" d="M44.1972 59.3746V55.6394L39.9549 55.6563C27.8704 55.2337 19.8085 45.6337 19.7408 33.8704H28.5803C28.5972 39.6844 34.1577 46.9182 40.2592 46.9521L44.1972 46.9859V42.9126L55.6732 51.0929L44.1972 59.3746Z" fill="white"/>
<path d="M82.313 57.378C80.333 57.378 78.551 56.964 76.967 56.136C75.401 55.29 74.168 54.12 73.268 52.626C72.368 51.132 71.918 49.44 71.918 47.55C71.918 45.66 72.368 43.968 73.268 42.474C74.168 40.98 75.401 39.819 76.967 38.991C78.551 38.145 80.333 37.722 82.313 37.722C84.041 37.722 85.598 38.028 86.984 38.64C88.37 39.252 89.522 40.134 90.44 41.286L87.038 44.364C85.814 42.888 84.329 42.15 82.583 42.15C81.557 42.15 80.639 42.375 79.829 42.825C79.037 43.275 78.416 43.914 77.966 44.742C77.534 45.552 77.318 46.488 77.318 47.55C77.318 48.612 77.534 49.557 77.966 50.385C78.416 51.195 79.037 51.825 79.829 52.275C80.639 52.725 81.557 52.95 82.583 52.95C84.329 52.95 85.814 52.212 87.038 50.736L90.44 53.814C89.522 54.966 88.37 55.848 86.984 56.46C85.598 57.072 84.041 57.378 82.313 57.378ZM102.959 57.378C100.961 57.378 99.1611 56.955 97.5591 56.109C95.9751 55.263 94.7241 54.093 93.8061 52.599C92.9061 51.105 92.4561 49.422 92.4561 47.55C92.4561 45.678 92.9061 43.995 93.8061 42.501C94.7241 41.007 95.9751 39.837 97.5591 38.991C99.1611 38.145 100.961 37.722 102.959 37.722C104.957 37.722 106.748 38.145 108.332 38.991C109.934 39.837 111.185 41.007 112.085 42.501C113.003 43.995 113.462 45.678 113.462 47.55C113.462 49.422 113.003 51.105 112.085 52.599C111.185 54.093 109.934 55.263 108.332 56.109C106.748 56.955 104.957 57.378 102.959 57.378ZM102.959 52.95C103.913 52.95 104.777 52.725 105.551 52.275C106.325 51.825 106.937 51.195 107.387 50.385C107.837 49.557 108.062 48.612 108.062 47.55C108.062 46.488 107.837 45.552 107.387 44.742C106.937 43.914 106.325 43.275 105.551 42.825C104.777 42.375 103.913 42.15 102.959 42.15C102.005 42.15 101.141 42.375 100.367 42.825C99.5931 43.275 98.9811 43.914 98.5311 44.742C98.0811 45.552 97.8561 46.488 97.8561 47.55C97.8561 48.612 98.0811 49.557 98.5311 50.385C98.9811 51.195 99.5931 51.825 100.367 52.275C101.141 52.725 102.005 52.95 102.959 52.95ZM134.326 57L134.272 46.983L129.412 55.137H127.036L122.203 47.253V57H117.262V38.1H121.663L128.305 49.008L134.785 38.1H139.186L139.24 57H134.326ZM152.663 38.1C154.373 38.1 155.858 38.388 157.118 38.964C158.378 39.522 159.35 40.332 160.034 41.394C160.718 42.438 161.06 43.671 161.06 45.093C161.06 46.515 160.718 47.748 160.034 48.792C159.35 49.836 158.378 50.646 157.118 51.222C155.858 51.78 154.373 52.059 152.663 52.059H149.369V57H144.023V38.1H152.663ZM152.339 47.847C153.437 47.847 154.265 47.613 154.823 47.145C155.381 46.659 155.66 45.975 155.66 45.093C155.66 44.211 155.381 43.527 154.823 43.041C154.265 42.555 153.437 42.312 152.339 42.312H149.369V47.847H152.339ZM176.38 53.328H168.388L166.903 57H161.449L169.792 38.1H175.057L183.427 57H177.865L176.38 53.328ZM174.814 49.386L172.384 43.338L169.954 49.386H174.814ZM203.925 38.1V57H199.524L191.181 46.929V57H185.943V38.1H190.344L198.687 48.171V38.1H203.925ZM218.821 50.223V57H213.475V50.142L206.266 38.1H211.909L216.391 45.606L220.873 38.1H226.057L218.821 50.223Z" fill="white"/>
</svg>
